<svg id="Capa_1" enable-background="new 0 0 512 512" height="512" viewBox="0 0 512 512" width="512" xmlns="http://www.w3.org/2000/svg"><g><path d="m497 46c-8.291 0-15 6.709-15 15v30c0 8.284-6.716 15-15 15h-121c-8.284 0-15-6.716-15-15v-30c0-8.291-6.709-15-15-15s-15 6.709-15 15v30c0 19.757 12.878 36.392 30.619 42.429 2.728 66.476 29.282 109.858 30.963 114.28 2.549 5.083 7.734 8.291 13.418 8.291h61c5.684 0 10.869-3.208 13.418-8.291 2.175-5.709 27.768-45.249 30.877-114.254 17.785-6.012 30.705-22.667 30.705-42.455v-30c0-8.291-6.709-15-15-15z"/><path d="m391 301v-15h-15c-17.139 0-32.549-9.521-40.239-24.844-.577-1.196 2.076 4.33-5.62-11.656-3.99 20.755-22.238 36.5-44.141 36.5h-60c-20.273 0-37.456-13.477-43.066-31.934-20.598-6.262-34.993-26.935-31.375-50.233 3.468-22.343 24.47-37.833 47.08-37.833h27.361c19.556 0 36.24 12.539 42.437 30h17.563c10.232 0 19.565 3.565 27.133 9.338-5.07-17.402-8.589-35.266-10.422-53.309-15.223-10.831-26.332-27.087-30.192-46.029h-106.519c-28.499 0-55.313 11.501-74.251 30h-16.749c-41.422 0-75 33.578-75 75v30c0 8.291 6.709 15 15 15s15-6.709 15-15v-30c0-23.196 17.703-42.122 40.272-44.522-6.408 13.568-10.272 28.552-10.272 44.522v15h46c24.814 0 45 20.186 45 45s-20.186 45-45 45h-46v135c0 8.284 6.716 15 15 15h31c8.284 0 15-6.716 15-15v-90c0-8.286 6.716-15 15-15h135l13.359 106.86c.939 7.505 7.319 13.14 14.885 13.14h16.756c8.284 0 15-6.716 15-15v-90c0-8.555 7.097-14.885 15.652-15.007 24.514-.348 44.348-20.396 44.348-44.993z"/><path d="m121 271c0-8.276-6.724-15-15-15h-46v30h46c8.276 0 15-6.724 15-15z"/><path d="m151 451c0 8.284 6.716 15 15 15h20.51c7.564 0 13.945-5.632 14.883-13.138l9.607-76.862h-60z"/><path d="m256 226c-8.291 0-15-6.709-15-15 0-8.276-6.724-15-15-15h-30c-8.276 0-15 6.724-15 15s6.724 15 15 15c8.524 0 15.374 7.09 14.984 15.699-.363 8.017 6.992 14.301 15.016 14.301h60c8.276 0 15-6.724 15-15s-6.724-15-15-15z"/><path d="m361 374.491v76.509c0 8.284 6.716 15 15 15h30c8.284 0 15-6.716 15-15v-150c0 36.226-25.811 66.519-60 73.491z"/></g></svg>