<svg xmlns="http://www.w3.org/2000/svg" height="867pt" version="1.1" style="fill:#f1adb9" viewBox="0 -70 867.50158 867" width="867pt"><g id="surface1"><path d="M 166.597656 238.339844 C 195.558594 255.730469 231.757812 255.730469 260.71875 238.339844 L 278.441406 227.691406 L 284.011719 172.007812 C 285.507812 157.050781 280.605469 142.15625 270.527344 130.996094 C 260.445312 119.851562 246.117188 113.488281 231.078125 113.476562 L 196.289062 113.476562 C 181.222656 113.394531 166.84375 119.765625 156.804688 130.992188 C 155.328125 132.769531 153.949219 134.632812 152.695312 136.578125 L 179.410156 152.640625 C 202.300781 166.390625 230.066406 169.4375 255.398438 160.988281 L 265.234375 190.5625 C 231.289062 201.925781 194.070312 197.839844 163.394531 179.394531 L 143.277344 167.332031 C 143.277344 168.882812 143.113281 170.4375 143.277344 172.070312 L 148.855469 227.757812 Z M 166.597656 238.339844 " style=" stroke:none;fill-rule:nonzero;fill-opacity:1;" /><path d="M 429.878906 87.738281 C 470.082031 66.863281 515.746094 58.898438 560.648438 64.933594 C 560.347656 61.589844 560.234375 58.238281 559.855469 54.894531 C 557.699219 35.566406 546.523438 18.390625 529.710938 8.605469 C 512.90625 -1.1875 492.449219 -2.445312 474.582031 5.21875 L 463.960938 9.765625 C 437.328125 21.285156 422.332031 49.792969 427.917969 78.257812 Z M 429.878906 87.738281 " style=" stroke:none;fill-rule:nonzero;fill-opacity:1;" /><path d="M 436.273438 119.703125 L 442.894531 152.773438 C 474.746094 136.714844 511.710938 134.09375 545.515625 145.476562 L 535.675781 175.070312 C 509.691406 166.351562 481.308594 168.363281 456.828125 180.683594 L 449.210938 184.484375 L 460.644531 241.566406 C 462.011719 243.464844 463.445312 245.332031 464.652344 247.375 L 471.992188 259.589844 C 481.449219 275.179688 498.34375 284.695312 516.578125 284.71875 L 518.523438 284.71875 L 531.5 253.589844 C 552.125 203.851562 562.554688 150.480469 562.175781 96.652344 C 518.800781 89.484375 474.296875 97.636719 436.273438 119.703125 Z M 436.273438 119.703125 " style=" stroke:none;fill-rule:nonzero;fill-opacity:1;" /><path d="M 799.4375 96.800781 L 826.085938 80.148438 C 813.554688 65.605469 798.601562 53.34375 781.878906 43.90625 C 757.683594 30.472656 728.464844 29.632812 703.539062 41.652344 C 678.605469 53.671875 661.066406 77.050781 656.515625 104.355469 L 652.046875 131.132812 C 703.621094 136.300781 755.457031 124.234375 799.4375 96.800781 Z M 799.4375 96.800781 " style=" stroke:none;fill-rule:nonzero;fill-opacity:1;" /><path d="M 218.222656 553.933594 C 241.519531 530.703125 279.210938 530.703125 302.503906 553.933594 L 314.402344 565.820312 C 331.148438 582.605469 355.816406 588.722656 378.460938 581.699219 C 356.230469 563.363281 347.265625 533.4375 355.730469 505.902344 C 364.199219 478.363281 388.433594 458.644531 417.125 455.96875 C 422.367188 385.554688 399.203125 315.980469 352.796875 262.753906 L 331.148438 238.019531 L 325.273438 238.019531 C 319.5 238.148438 313.785156 239.253906 308.371094 241.285156 L 297.617188 348.839844 C 294.675781 378.402344 276.316406 404.195312 249.359375 416.671875 C 275.867188 437.347656 291.402344 469.050781 291.496094 502.667969 L 260.359375 502.667969 C 260.300781 478.1875 248.777344 455.140625 229.230469 440.398438 L 207.730469 424.269531 C 192.703125 423.289062 178.21875 418.261719 165.820312 409.730469 C 152.910156 419.433594 137.21875 424.722656 121.066406 424.832031 L 116.953125 424.832031 C 149.789062 482.800781 167.015625 548.300781 166.957031 614.929688 L 166.957031 658.34375 L 193.808594 658.34375 C 203.398438 658.328125 212.726562 655.261719 220.464844 649.613281 L 225.75 645.753906 L 218.222656 638.214844 C 194.980469 614.929688 194.980469 577.21875 218.222656 553.933594 Z M 218.222656 553.933594 " style=" stroke:none;fill-rule:nonzero;fill-opacity:1;" /><path d="M 491.265625 573.578125 L 465.355469 556.296875 L 489.003906 520.855469 L 467.90625 507.417969 L 444.554688 542.441406 L 418.65625 525.160156 L 441.414062 491.019531 C 422.699219 481.921875 400.121094 488.609375 389.394531 506.453125 C 378.675781 524.296875 383.351562 547.375 400.175781 559.632812 L 425.082031 577.714844 C 444.917969 580.8125 463.257812 590.125 477.449219 604.308594 L 486.792969 613.644531 C 489.277344 616.207031 491.523438 618.980469 493.519531 621.925781 C 507.53125 624.34375 521.769531 619.117188 530.882812 608.199219 L 534.652344 603.671875 C 542.0625 594.78125 545.273438 583.132812 543.492188 571.699219 C 541.707031 560.265625 535.078125 550.160156 525.308594 543.957031 L 515.195312 537.511719 Z M 491.265625 573.578125 " style=" stroke:none;fill-rule:nonzero;fill-opacity:1;" /><path d="M 516.578125 315.855469 C 487.386719 315.777344 460.351562 300.46875 445.277344 275.484375 L 437.949219 263.273438 C 428.507812 247.636719 411.601562 238.0625 393.339844 238.019531 L 372.453125 238.019531 L 376.1875 242.285156 C 428.46875 302.261719 454.339844 380.789062 447.949219 460.085938 C 452.902344 461.828125 457.65625 464.101562 462.117188 466.859375 L 482.941406 480.113281 L 597.246094 458.683594 C 578.105469 407.257812 551.160156 359.082031 517.351562 315.855469 Z M 516.578125 315.855469 " style=" stroke:none;fill-rule:nonzero;fill-opacity:1;" /><path d="M 455.410156 626.335938 C 438.296875 609.078125 412.867188 603.046875 389.820312 610.765625 C 355.613281 622.324219 317.820312 613.398438 292.386719 587.773438 L 280.484375 575.878906 C 269.308594 565.167969 251.609375 565.355469 240.660156 576.3125 C 229.707031 587.257812 229.523438 604.953125 240.230469 616.148438 L 244.792969 620.703125 L 264.921875 600.574219 L 286.941406 622.582031 L 266.804688 642.777344 L 304.167969 680.140625 C 328.15625 646.8125 366.757812 627.101562 407.820312 627.210938 L 431.605469 627.210938 L 431.605469 658.34375 L 407.820312 658.34375 C 374.972656 658.269531 344.359375 674.925781 326.566406 702.542969 L 340.578125 716.550781 C 344.238281 720.210938 348.820312 722.800781 353.828125 724.054688 C 380.582031 730.679688 408.871094 723.988281 429.820312 706.085938 L 463.210938 677.460938 C 469.21875 672.296875 472.804688 664.851562 473.105469 656.933594 C 473.390625 649.011719 470.375 641.332031 464.765625 635.722656 Z M 455.410156 626.335938 " style=" stroke:none;fill-rule:nonzero;fill-opacity:1;" /><path d="M 683.480469 292.828125 C 672.386719 292.828125 661.304688 292.144531 650.292969 290.769531 L 609.046875 285.609375 C 595.851562 302.09375 576.652344 312.667969 555.671875 315.011719 C 585.976562 357.195312 610.316406 403.351562 628.023438 452.179688 C 667.613281 442.679688 705.941406 428.542969 742.214844 410.042969 L 673.839844 376.570312 L 687.535156 348.554688 L 775.265625 391.515625 C 829.894531 356.421875 864.160156 297.0625 867.203125 232.199219 L 802.117188 264.777344 C 765.296875 283.222656 724.660156 292.828125 683.480469 292.828125 Z M 683.480469 292.828125 " style=" stroke:none;fill-rule:nonzero;fill-opacity:1;" /><path d="M 675.175781 163.589844 C 665.464844 163.519531 655.75 162.917969 646.09375 161.796875 L 626.351562 250.734375 C 625.933594 252.601562 625.28125 254.378906 624.789062 256.203125 L 654.21875 259.808594 C 700.136719 265.582031 746.71875 257.609375 788.105469 236.921875 L 867.5 197.257812 L 867.5 189.480469 C 867.496094 159.867188 859.589844 130.800781 844.59375 105.273438 L 815.941406 123.175781 C 773.738281 149.578125 724.957031 163.578125 675.175781 163.589844 Z M 675.175781 163.589844 " style=" stroke:none;fill-rule:nonzero;fill-opacity:1;" /><path d="M 213.65625 282.519531 C 192.261719 282.472656 171.257812 276.816406 152.726562 266.109375 L 160.730469 345.746094 C 163.453125 372.957031 186.351562 393.6875 213.707031 393.6875 C 241.054688 393.6875 263.960938 372.957031 266.6875 345.746094 L 274.640625 266.128906 C 256.085938 276.832031 235.074219 282.480469 213.65625 282.519531 Z M 213.65625 282.519531 " style=" stroke:none;fill-rule:nonzero;fill-opacity:1;" /><path d="M 80.425781 424.832031 L 71.574219 424.832031 C 57.867188 424.796875 44.890625 431.027344 36.355469 441.75 L 9.894531 474.753906 C 1.5625 485.148438 -1.746094 498.703125 0.882812 511.757812 L 2.707031 520.835938 C 6.445312 539.167969 21.058594 553.316406 39.503906 556.472656 L 48.847656 558.023438 C 80.957031 563.394531 106.117188 588.558594 111.492188 620.671875 C 113.878906 634.859375 122.929688 647.035156 135.820312 653.40625 L 135.820312 614.929688 C 135.820312 547.578125 116.605469 481.632812 80.425781 424.832031 Z M 80.425781 424.832031 " style=" stroke:none;fill-rule:nonzero;fill-opacity:1;" /></g></svg>