<svg xmlns="http://www.w3.org/2000/svg" xml:space="preserve" width="256px" height="256px" version="1.1" style="fill:#581420;shape-rendering:geometricPrecision; text-rendering:geometricPrecision; image-rendering:optimizeQuality; fill-rule:evenodd; clip-rule:evenodd"
viewBox="0 0 256 256"
 xmlns:xlink="http://www.w3.org/1999/xlink">
 <g>
  <path class="fil0" d="M150 101c8,-7 9,3 10,9l5 58c1,9 8,72 5,75 -7,7 -10,-3 -10,-8l-9 -96c0,-7 -4,-35 -1,-38zm-48 -93c1,4 2,4 2,9 -4,1 -6,-1 -9,-2 -5,9 -13,18 -10,34 1,5 3,8 1,12 -9,19 13,15 40,15 25,0 54,4 44,-15 -4,-7 3,-6 1,-24 -2,-12 -7,-15 -10,-22 -5,1 -3,3 -10,2 0,-4 2,-6 3,-9 -6,-3 -12,-7 -21,-8l-5 6c-4,-1 -1,1 -3,-2l-2 -4c-10,1 -15,4 -21,8zm6 92c2,7 -8,112 -10,136 -1,11 -8,9 -10,7 -4,-4 4,-67 5,-77 1,-13 2,-26 3,-39 2,-24 1,-31 12,-27zm-19 -20c-12,3 -10,13 -11,26 -2,19 -11,134 -10,139 1,12 13,11 26,11 24,0 49,0 74,0 26,0 21,-12 18,-52l-8 -104c-1,-13 -2,-20 -16,-21 -9,0 -68,-1 -73,1z"/>
 </g>
</svg>
