<svg xmlns="http://www.w3.org/2000/svg" xml:space="preserve" width="256px" height="256px" version="1.1" style="fill:#701322;shape-rendering:geometricPrecision; text-rendering:geometricPrecision; image-rendering:optimizeQuality; fill-rule:evenodd; clip-rule:evenodd"
viewBox="0 0 256 256"
 xmlns:xlink="http://www.w3.org/1999/xlink">
 <g>
  <path class="fil0" d="M123 147c0,11 -2,20 -7,27 -4,6 -11,14 -21,13 -10,0 -16,-8 -20,-15 -4,-8 -5,-19 -4,-29 1,-26 11,-47 26,-67 1,-2 2,-3 3,-5l9 -8c2,-2 7,-7 9,-7 -10,57 5,66 5,91zm34 -147c-21,7 -50,28 -66,43 -44,42 -71,116 -33,174 6,8 7,8 13,14 7,8 24,17 35,20 25,9 53,5 75,-10 27,-19 41,-51 33,-85 -8,-30 -26,-41 -40,-68 -7,-12 -12,-24 -16,-39 -4,-18 -3,-30 -1,-49z"/>
 </g>
</svg>
