<svg xmlns="http://www.w3.org/2000/svg" xml:space="preserve" width="256px" height="256px" version="1.1" style="fill:#701322;shape-rendering:geometricPrecision; text-rendering:geometricPrecision; image-rendering:optimizeQuality; fill-rule:evenodd; clip-rule:evenodd"
viewBox="0 0 256 256"
 xmlns:xlink="http://www.w3.org/1999/xlink">
 <g>
  <path class="fil0" d="M36 162c0,3 1,3 2,7 1,1 1,2 2,3 1,1 1,2 2,3l7 12c3,4 6,7 9,11 5,5 6,6 12,11 1,1 2,2 3,2 1,1 2,2 3,3 1,0 2,1 3,2 1,0 2,1 3,2l3 1c9,5 10,6 20,10 3,1 13,4 16,4 0,-4 1,-7 1,-11l4 -17c0,-2 1,-4 1,-7 0,-2 1,-5 2,-6 0,-2 0,-5 1,-7l4 -21c1,-5 2,-9 2,-14 1,-2 1,-2 1,-3l4 -18c0,-2 1,-5 1,-7 -2,0 -26,9 -27,10l-21 8c-1,0 -1,0 -2,0l-29 12c-3,0 -4,1 -7,2 -2,1 -4,2 -6,3 -2,0 -3,0 -4,1 -2,1 -7,3 -10,4zm145 -71c-3,0 -5,0 -8,2 -2,1 -5,2 -6,3 -3,2 -6,5 -9,7 -1,1 -1,2 0,3 10,9 21,17 36,11 5,-2 9,-6 13,-8 4,-5 3,-4 2,-6 -6,-6 -17,-14 -28,-12zm-7 -30c3,-13 1,-24 -4,-34 -3,-8 -9,-15 -14,-21 -2,-2 -4,-5 -7,-6 -3,1 -16,18 -19,23l-1 3c-9,19 -8,35 3,52 2,3 5,8 8,11 1,1 8,10 9,10 6,-4 23,-30 25,-38zm68 140c-1,1 -7,8 -9,10l-9 7c0,1 0,0 -1,1 -3,3 -11,8 -15,10 -6,4 -14,8 -21,10 -4,1 -6,2 -9,3 -4,0 -7,1 -10,2 -1,0 -2,1 -3,1 -1,0 -1,0 -2,0l-2 0c-6,2 -23,1 -30,1 -1,0 -1,-1 -3,-1 -1,0 -2,0 -4,0 -6,-1 -12,-3 -19,-5l-11 -4c-5,-2 -12,-5 -16,-8 0,0 0,0 -1,-1l-4 -2c-2,-2 -4,-3 -6,-5 -4,-3 -8,-6 -11,-9l-6 -6c-1,-1 -1,-1 -2,-2 -1,-1 -2,-3 -4,-4 -5,-7 -14,-20 -16,-27l-7 -17c-1,-3 -3,-14 -3,-17 0,-2 -1,-4 -1,-6 -1,-8 -1,-22 0,-30 0,-3 1,-5 1,-7 1,-5 2,-9 3,-13l2 -6c1,-2 2,-4 2,-6 1,-1 1,-1 2,-2 0,-1 0,-2 1,-3 1,-2 2,-4 2,-5 2,-3 4,-7 6,-10l2 -3c1,-2 2,-3 3,-5 0,0 0,0 0,0 1,0 1,0 1,0 0,-1 0,-1 0,-2 -1,-1 -2,-2 -3,-3l-4 -3c-2,2 -5,8 -7,11l-3 5c-3,3 -4,7 -6,11 -1,3 -3,6 -4,9 -1,5 -3,9 -4,14 -4,14 -5,28 -4,43 0,5 1,11 2,16l3 14c1,5 4,14 7,19 5,10 11,20 18,29 1,1 2,2 2,2l6 7c4,4 8,7 12,11 1,1 3,2 5,4l6 4c5,3 10,6 15,9 1,0 2,1 3,1 4,2 11,5 15,6l11 3c11,2 13,3 27,4 5,0 11,0 16,0 4,-1 2,-1 8,-1 1,0 2,-1 4,-1 1,0 2,0 4,0l6 -2c1,0 3,-1 4,-1 2,-1 4,-1 7,-2 3,-1 6,-2 9,-4l12 -5c1,-1 2,-1 3,-2 10,-5 24,-16 31,-24 2,-2 3,-3 5,-5 3,-4 1,-3 -3,-7 -1,0 -1,-1 -3,-1zm-211 -52c2,0 16,-6 19,-7 1,-1 2,-1 3,-1l46 -18c2,-1 5,-2 7,-2 4,-2 24,-10 24,-10 0,-1 -8,-8 -10,-9 -3,-2 -8,-6 -11,-9l-30 -24c-2,-1 -3,-2 -5,-4l-19 -15c-3,-2 -4,-5 -7,2 -2,2 -3,4 -5,7 0,1 0,1 -1,2 -2,3 -6,11 -7,15 -1,2 -2,4 -2,6 -1,1 -1,2 -1,3 -2,5 -3,13 -4,17 -2,12 -1,21 0,32 1,3 2,13 3,15zm104 86c3,1 13,1 16,0 2,0 2,0 4,0 5,-1 15,-3 21,-4 2,0 0,0 2,0 1,-1 2,-1 3,-1l10 -4c1,-1 1,-1 3,-2 2,0 4,-2 6,-2l10 -7c1,-1 1,-1 2,-1 4,-3 9,-7 12,-10 2,-2 9,-9 9,-11 0,-1 -8,-7 -9,-8 -1,0 -2,-1 -3,-2 -1,0 -1,-1 -2,-2l-5 -4c-4,-2 -7,-5 -10,-8l-20 -15c-1,-1 -1,-2 -2,-2l-23 -18c-1,-1 -3,-4 -5,-4 0,2 0,4 -1,7l-2 12c-1,2 -1,3 -1,4l-14 72c0,1 -1,5 -1,10z"/>
 </g>
</svg>
