<svg xmlns="http://www.w3.org/2000/svg" xml:space="preserve" width="256px" height="256px" version="1.1" style="fill:#701322;shape-rendering:geometricPrecision; text-rendering:geometricPrecision; image-rendering:optimizeQuality; fill-rule:evenodd; clip-rule:evenodd"
viewBox="0 0 256 256"
 xmlns:xlink="http://www.w3.org/1999/xlink">
 <g>
  <path class="fil0" d="M100 232c-5,-1 -10,-4 -11,-7 -1,-3 0,-12 1,-15 1,-4 4,-7 7,-10 8,-8 17,-8 20,-14 3,-5 -1,-9 -3,-12 -6,-8 -5,-17 -6,-28 -1,-12 -9,-12 -19,-15 -5,-1 -8,-3 -9,-7 -2,-5 -1,-11 1,-15 7,-13 27,-20 47,-20 20,0 41,8 47,21 2,4 3,9 1,14 -1,4 -4,6 -9,7 -10,3 -19,3 -19,15 -1,11 0,20 -6,28 -2,3 -6,7 -3,12 1,4 6,5 10,7 7,4 15,9 17,17 0,3 2,12 1,15 -1,3 -6,6 -10,7 -2,-2 -2,-3 -5,-4 -6,-4 -14,0 -14,8 -5,0 -16,1 -20,0 -1,-12 -16,-11 -18,-4zm84 -168c0,-1 1,-1 2,-2 9,-7 17,-21 22,-32 2,-3 4,-7 5,-10 1,-2 1,-3 2,-5 3,-6 1,-12 -5,-14 -4,-2 -8,0 -10,2 -4,3 -9,29 -39,35 -4,1 -7,2 -9,0 -6,-5 -15,-8 -24,-8 -9,0 -17,3 -23,7 -3,2 -2,2 -5,2 -6,-1 -11,-2 -16,-5 -8,-3 -13,-8 -17,-13 -7,-9 -8,-15 -11,-18 -7,-7 -21,0 -15,12 1,2 1,4 2,5 2,4 3,7 5,10 3,7 7,14 10,19 8,12 13,14 14,15 -1,1 -2,2 -2,3l-7 8c-3,-1 -6,-3 -15,-5 -13,-3 -39,0 -48,9 1,3 5,13 7,16 3,5 5,9 9,13 3,3 8,7 14,9 7,2 12,1 19,0 0,20 4,44 15,60 6,10 9,10 12,13 0,2 -2,5 -2,6 -6,15 -9,34 3,45 18,18 74,20 98,4 2,-1 3,-2 4,-4 7,-7 9,-14 8,-25 -1,-13 -4,-15 -7,-26 8,-6 16,-16 20,-29 5,-16 6,-27 7,-44 10,2 17,2 27,-4 10,-7 19,-22 22,-34 -6,-6 -21,-9 -30,-10 -15,-1 -20,1 -32,6 -2,-1 -4,-4 -5,-6 -2,-1 -4,-3 -5,-5z"/>
 </g>
</svg>
