<svg id="Solid" height="512" viewBox="0 0 512 512" width="512" style="fill:#581420" xmlns="http://www.w3.org/2000/svg"><ellipse cx="311.635" cy="440" rx="32" ry="40"/><circle cx="96" cy="448" r="8"/><path d="m296 387.066v-171.066h-144v188.641c18.9 7.718 32 24.25 32 43.359 0 11.959-5.141 22.9-13.613 31.315a23.949 23.949 0 0 0 5.613.685h96a24.182 24.182 0 0 0 5.526-.645c-8.581-10.122-13.891-24.027-13.891-39.355 0-24.493 13.553-45.349 32.365-52.934zm-120-115.066a8 8 0 1 1 8-8 8 8 0 0 1 -8 8zm24 24a8 8 0 1 1 8-8 8 8 0 0 1 -8 8zm0-48a8 8 0 1 1 8-8 8 8 0 0 1 -8 8z"/><path d="m296 175.942a23.95 23.95 0 0 0 -16.406-22.758l-16.414-5.471a24.093 24.093 0 0 1 -16.261-20.113l-5.288-47.6h-35.36l-5.19 46.713a24.089 24.089 0 0 1 -16.253 20.114l-16.418 5.473a23.951 23.951 0 0 0 -16.41 22.76v24.94h144z"/><path d="m128 416a45.736 45.736 0 0 0 -27.115 8.5 24 24 0 0 1 0 47 45.736 45.736 0 0 0 27.115 8.5c22.056 0 40-14.355 40-32s-17.944-32-40-32z"/><path d="m200 32h48v32h-48z"/><path d="m438.553 251.207a7.9 7.9 0 0 0 -2.094-7.666 7.988 7.988 0 0 0 -5.584-2.363 8.435 8.435 0 0 0 -2.082.269c-11.456 2.918-22.207 9.339-31.952 19.084-16.841 16.839-29.661 42.669-36.841 59.469 16.8-7.18 42.63-20 59.469-36.842 9.745-9.745 16.166-20.495 19.084-31.951z"/><path d="m356.3 419.531a64.7 64.7 0 0 1 1.208 36.959 48.607 48.607 0 0 0 7.679 9.952c7.747 7.747 17.462 12.51 27.356 13.41 9.347.847 17.713-1.9 23.56-7.749 12.477-12.477 9.938-35.318-5.66-50.915-7.742-7.744-17.454-12.5-27.347-13.4-9.348-.845-17.713 1.9-23.559 7.75a25.613 25.613 0 0 0 -3.237 3.993z"/><path d="m356.231 397.984a43.96 43.96 0 0 1 15.017-5.548l-11.248-33.736v-102.7a8 8 0 0 0 -16 0v100.15l-34.913 27.93q1.266-.078 2.548-.08a41.857 41.857 0 0 1 18.03 4.115l18.375-14.7z"/></svg>
