<svg xmlns="http://www.w3.org/2000/svg" xml:space="preserve" width="40px" height="40px" version="1.1" style="shape-rendering:geometricPrecision; text-rendering:geometricPrecision; image-rendering:optimizeQuality; fill-rule:evenodd; clip-rule:evenodd"
viewBox="0 0 40 40"
 xmlns:xlink="http://www.w3.org/1999/xlink">
<g>
  <path fill="white" d="M23 17c0,1 0,2 -1,2 0,0 0,0 0,0 0,1 -1,2 -2,3 -2,1 -5,2 -7,2 -2,0 -4,-1 -5,-2 -2,-2 -3,-4 -4,-6 0,-2 0,-3 0,-5 2,-7 12,-10 18,-3 1,1 2,3 2,5 0,1 0,2 0,2 0,1 0,2 -1,2 0,0 0,0 0,0zm-23 -3c0,3 1,6 3,9 2,3 7,5 11,5 2,0 3,0 5,-1 1,0 2,-1 2,-1 1,0 1,-1 1,-1l3 2c-2,2 0,3 1,5l7 7c1,1 3,1 4,0l2 -2c0,0 0,0 0,0l1 -1c1,-2 -1,-3 -2,-4l-7 -7c-1,-1 -2,-1 -4,-1l-2 -2 1 0c3,-5 3,-11 -1,-16 0,-1 -2,-3 -3,-4 -10,-6 -22,1 -22,12z"/>
 </g>
</svg>
